<?xml version="1.0" encoding="utf-8"?>
<!-- Generator: Adobe Illustrator 16.0.4, SVG Export Plug-In . SVG Version: 6.00 Build 0)  -->
<!DOCTYPE svg PUBLIC "-//W3C//DTD SVG 1.1//EN" "http://www.w3.org/Graphics/SVG/1.1/DTD/svg11.dtd">
<svg version="1.1" id="Dark_box_1_" xmlns="http://www.w3.org/2000/svg" xmlns:xlink="http://www.w3.org/1999/xlink" x="0px"
	 y="0px" width="192px" height="192px" viewBox="0 0 192 192" style="enable-background:new 0 0 192 192;" xml:space="preserve">
<style type="text/css">
<![CDATA[
	.st0{fill:#F6F6F6;}
	.st1{fill:#5C5C5C;}
	.st2{fill:#6A6A6A;}
	.st3{fill:#424242;}
]]>
</style>
<path class="st0" d="M192,155.25h-0.027c-0.099-1.58-0.507-3.151-1.239-4.616l-24-48c-0.577-1.154-1.336-2.207-2.248-3.119
	L148.971,84H156c4.854,0,9.229-2.924,11.087-7.408c1.857-4.484,0.83-9.646-2.602-13.078l-60-60c-4.686-4.687-12.284-4.687-16.971,0
	l-60,60c-3.432,3.432-4.458,8.593-2.601,13.078C26.771,81.076,31.146,84,36,84h7.029L27.515,99.515
	c-0.912,0.912-1.671,1.965-2.248,3.119l-24,48c-0.733,1.465-1.141,3.036-1.24,4.616H0v14.25l24-2.906V192h144v-25.406l24,2.906
	V155.25z M148.059,144.004C145.478,146.282,144,149.558,144,153v15H48v-15c0-3.442-1.478-6.718-4.059-8.996
	c-2.581-2.278-6.019-3.342-9.43-2.911l-1.751,0.219l13.102-26.203L64.971,96H72c6.627,0,12-5.373,12-12V72c0-6.627-5.373-12-12-12
	h-7.029L96,28.971L127.029,60H120c-6.627,0-12,5.373-12,12v12c0,6.627,5.373,12,12,12h7.029l19.108,19.108l13.102,26.203
	l-1.751-0.219C154.07,140.662,150.639,141.726,148.059,144.004z"/>
<polygon class="st3" points="60,84 36,108 12,156 36,153 60,150 "/>
<polygon class="st3" points="132,84 156,108 180,156 156,153 132,150 "/>
<rect x="36" y="108" class="st2" width="120" height="72"/>
<polygon class="st1" points="36,108 60,84 60,108 "/>
<polygon class="st1" points="156,108 132,84 132,108 "/>
<rect x="60" y="84" class="st3" width="72" height="24"/>
<polygon class="st2" points="72,96 120,96 120,72 156,72 96,12 36,72 72,72 "/>
</svg>
